<?xml version="1.0" encoding="UTF-8"?>
<svg width="400" height="110" version="1.1" xmlns="http://www.w3.org/2000/svg">
 <path d="m387.75 23.71c0.53141-0.47332 1.0069-0.6519 1.3619-0.6519 0.53141 0 0.88856 0.41523 0.88856 1.1833 0 5.1528-25.697 35.11-33.215 42.156-6.1575 5.8026-10.54 9.5332-13.085 9.5332-0.82831 0-1.3619-0.41739-1.3619-1.4221 0-3.849 5.8026-14.032 5.8026-14.032v-0.2969l-10.717 9.473c-2.4871 2.1902-5.5056 3.1971-8.2294 3.1971-4.9742 0-9.2944-3.905-9.2944-12.907v-48.251c0-2.0138 1.3619-3.0207 3.0766-3.0207 1.009 0 2.1923 0.41523 3.3757 1.1252 7.5194 4.7957 17.289 13.853 24.807 26.229 1.1833 1.9536 1.6588 3.9071 1.6588 5.8606 0 6.2759-5.0323 12.61-10.243 18.294v0.35499z" fill="#ed7004"/>
 <path d="m86.21 45.41c-4.2879 0-8.1821 0.28614-10.947 0.83048-2.769 0.54863-3.6661 1.8244-3.6661 4.3826 0 1.5555 0.13764 3.5069 0.31412 4.6967 0.10328 0.67772 0.47547 0.90362 1.3619 0.7767 4.3352-0.61534 8.2187-0.96388 11.833-0.96388 4.6666 0 7.0569 0.29476 8.4058 1.3124 1.0521 0.78744 1.4329 2.0547 1.4329 4.1136v1.3339c-3.4101-0.43891-7.2677-0.69278-10.017-0.69278-6.4824 0-11.067 1.2436-13.845 3.8598-2.1622 2.0353-3.3283 5.0065-3.3283 8.5651 0 7.9519 5.6864 13.062 18.748 13.062 6.6567 0 12.997-1.0392 16.773-2.5517 2.0611-0.82617 2.7862-2.0956 2.7862-4.5913v-16.779c0-6.6352-1.1661-10.484-3.9846-13.171-3.0185-2.8765-7.9368-4.1825-15.867-4.1825m8.735 30.028c0 0.85844-0.41523 1.2113-1.648 1.4544-1.8675 0.36574-4.2212 0.59596-6.4803 0.59596-5.7724 0-7.6658-1.5792-7.6658-4.2965 0-1.0865 0.32273-1.9105 0.94452-2.5258 0.91653-0.91008 2.5667-1.3275 5.0474-1.3275h9.8022zm-46.371-40.966v33.559c-8.8232-11.945-18.279-24.742-24.434-33.019-0.67772-0.91438-1.2393-1.4135-2.3731-1.7492-1.3081-0.38513-3.0745-0.56369-4.4837-0.56369-2.8314 0-4.8645 0.45396-6.0328 1.6093-0.83908 0.83477-1.2522 2.1171-1.2522 3.9523v47.582h9.9571c1.3167 0 1.6868-0.39801 1.6868-1.6158v-33.438c8.0767 10.904 17.477 23.608 24.434 32.913 0.68848 0.92082 1.3102 1.4329 2.3752 1.747 1.3081 0.38512 3.0745 0.5637 4.4815 0.5637 2.8335 0 4.8667-0.45181 6.0349-1.6093 0.84124-0.83263 1.2522-2.1149 1.2522-3.9523v-47.578h-9.9764c-1.1726 0-1.6696 0.42814-1.6696 1.5985m91.634 41.164c-0.21085-0.47118-0.426-0.69708-0.83477-0.69708-0.142 0-0.33564 0.0366-0.62609 0.11828-2.911 0.83693-6.1532 1.4931-8.3435 1.4931-2.031 0-3.2875-0.39803-4.0921-1.2221-0.87995-0.90146-1.1984-2.287-1.1984-4.5375v-14.596h10.303c1.5749 0 2.429-0.39587 2.9368-1.2909 0.47332-0.83693 0.67341-2.1128 0.67341-3.9178 0-1.3382-0.1399-3.04-0.30767-3.8856-0.12263-0.62393-0.4475-0.84984-1.2371-0.84984h-12.369v-11.719h-9.004c-1.6136 0-2.1128 0.65619-2.1128 2.0719v35.669c0 5.2797 1.1941 8.3607 3.4445 10.566 2.5108 2.4656 6.164 3.8447 11.102 3.8447 3.7436 0 7.4635-0.88427 10.325-2.1214 2.2117-0.95741 2.9906-1.8782 2.9906-3.3197 0-0.55724-0.12909-1.1812-0.33349-1.8782-0.28614-0.97249-0.84768-2.6872-1.3167-3.7285m154.37-29.385c-1.3253 0-1.9256 0.7229-1.9256 2.0719v19.271c0 3.1605-0.59381 5.3099-1.9213 6.7557-1.349 1.4673-3.4488 2.2289-6.065 2.2289-2.3537 0-4.0814-0.6605-5.1894-1.8976-1.1962-1.3404-1.676-3.21-1.676-6.3942v-22.036h-9.1503c-1.5017 0-1.9686 0.8563-1.9686 1.9966v21.106c0 5.8886 1.3597 9.7936 4.0556 12.56 2.627 2.6958 6.5233 4.247 11.667 4.247 4.5504 0 8.2337-1.8933 10.248-4.0512v1.0306c0 2.6657-0.36145 4.6644-1.5362 6.05-1.4114 1.6609-4.0448 2.4441-8.6446 2.4441-2.997 0-6.5448-0.38297-9.3547-0.78314-1.207-0.17211-1.7513 0.50561-1.9084 1.562-0.13764 0.91224-0.26249 2.6506-0.26249 3.8103 0 2.4097 0.68203 3.7156 3.6941 4.3159 2.5302 0.5013 6.5319 0.79819 9.8452 0.79819 7.1042 0 11.999-1.8094 14.996-5.0194 3.068-3.2918 4.2922-8.0164 4.2922-14.69v-35.377zm-55.037-0.84123c-12.543 0-20.491 7.84-20.491 20.665 0 12.02 6.405 20.086 17.793 20.086 4.7956 0 8.6038-1.7986 11.14-4.6364v1.7147c0 2.7754-0.47117 4.6838-1.7857 6.0263-1.577 1.6028-4.6967 2.3172-9.146 2.3172-2.9411 0-6.6825-0.3679-9.871-0.82402-1.0564-0.15281-1.7384 0.26463-1.9234 1.5469-0.15927 1.1231-0.24742 2.7883-0.24742 3.8103 0 2.6313 0.77884 3.7952 3.7608 4.3933 2.698 0.54432 6.5297 0.82618 9.927 0.82618 7.6786 0 12.778-1.7147 16.059-5.0969 3.0013-3.0938 4.3438-7.584 4.3438-13.427v-18.068c0-6.1876-1.7578-10.676-4.7892-13.782-3.4553-3.5413-8.9588-5.5508-14.77-5.5508m8.4424 20.327c0 3.8963-0.8025 6.831-2.6011 8.664-1.4006 1.4264-3.4316 2.2504-6.0478 2.2504-6.263 0-8.8512-4.2298-8.8512-10.577 0-7.2053 3.6382-10.504 8.8361-10.504 2.5861 0 4.7935 0.84339 6.263 2.2784 1.577 1.5426 2.4011 3.8339 2.4011 6.7772zm-75.123-17.414v20.725c0 2.6743-0.57876 4.3933-1.7513 5.553-1.235 1.2199-3.1282 1.9234-5.6907 1.9234-2.5624 0-4.4536-0.70354-5.6885-1.9234-1.1726-1.1597-1.7534-2.8787-1.7534-5.553v-22.797h-8.9868c-1.6136 0-2.1214 0.65621-2.1214 2.0719v22.169c0 5.0065 1.4544 8.6812 4.1287 11.328 3.1993 3.1713 8.1434 4.8645 14.421 4.8645 6.2802 0 11.222-1.6932 14.424-4.8645 2.6722-2.6463 4.1352-6.321 4.1352-11.328v-24.241h-8.9975c-1.6136 0-2.1192 0.65621-2.1192 2.0719m41.403-1.7836c-1.4135-0.60887-4.0943-1.1295-7.442-1.1295-4.3804 0-8.2918 1.0478-11.013 3.479-2.528 2.2526-4.0577 5.639-4.0577 11.657v24.191c0 0.80679 0.48624 1.1058 1.136 1.1058h9.9807v-23.21c0-3.1046 0.44535-4.5203 1.4307-5.5723 1.0693-1.1403 2.926-1.6437 5.8477-1.6437 1.1102 0 2.8141 0.10973 4.6859 0.25388 0.9273 0.071 1.2285-0.21515 1.3834-0.95743 0.19363-0.93158 0.36145-2.6033 0.36145-4.0018 0-2.216-0.64759-3.4574-2.3128-4.1717" fill="#005795"/>
</svg>
