<svg xmlns="http://www.w3.org/2000/svg" width="929.012" height="866.99" viewBox="0 0 929.012 866.99">
  <g id="graph_path" data-name="graph path" transform="translate(-0.001)">
    <g id="Group_14" data-name="Group 14">
      <path id="Path_28" data-name="Path 28" d="M154.512,531a29.492,29.492,0,0,0,22.168-48.953l118.1-196.829a29.5,29.5,0,0,0,33.691-40.7l105.679-94.254a29.48,29.48,0,0,0,34.482-4.2l98.1,53.987a29.5,29.5,0,1,0,56.791-2.825l104.927-83.368A29.5,29.5,0,0,0,773.011,88.5c0-.135-.008-.268-.01-.4L871.22,48.81a29.491,29.491,0,1,0-7.209-19.31c0,.929.048,1.847.132,2.754L767.262,71.006A29.5,29.5,0,0,0,716.5,100.363L612.9,182.675a29.483,29.483,0,0,0-37.064,1.849l-98.41-54.159a29.5,29.5,0,1,0-58.415-5.865,29.37,29.37,0,0,0,2.832,12.618L316.486,231.085a29.494,29.494,0,0,0-37.142,44.868l-118.1,196.829A29.488,29.488,0,0,0,125.012,501.5c0,.9.047,1.793.126,2.675L0,557.214l7.022,16.572,125.142-53.04A29.422,29.422,0,0,0,154.512,531" fill="#f0f2f7"/>
      <path id="Path_29" data-name="Path 29" d="M178.013,590h-47a12,12,0,0,0-12,12V866.99h71V602a12,12,0,0,0-12-12" fill="#f0f2f7"/>
      <path id="Path_30" data-name="Path 30" d="M325.013,345h-47a12,12,0,0,0-12,12V866.99h71V357a12,12,0,0,0-12-12" fill="#f0f2f7"/>
      <path id="Path_31" data-name="Path 31" d="M473.013,213h-47a12,12,0,0,0-12,12V866.99h71V225a12,12,0,0,0-12-12" fill="#f0f2f7"/>
      <path id="Path_32" data-name="Path 32" d="M768.013,177h-47a12,12,0,0,0-12,12V866.99h71V189a12,12,0,0,0-12-12" fill="#f0f2f7"/>
      <path id="Path_33" data-name="Path 33" d="M917.013,118h-47a12,12,0,0,0-12,12V866.99h71V130a12,12,0,0,0-12-12" fill="#f0f2f7"/>
      <path id="Path_34" data-name="Path 34" d="M619.013,295h-47a12,12,0,0,0-12,12V866.99h71V307a12,12,0,0,0-12-12" fill="#f0f2f7"/>
    </g>
  </g>
</svg>
