<svg xmlns="http://www.w3.org/2000/svg" xmlns:xlink="http://www.w3.org/1999/xlink" width="868" height="868" viewBox="0 0 868 868">
  <defs>
    <clipPath id="clip-path">
      <rect id="Rectangle_29" data-name="Rectangle 29" width="868" height="868" fill="#f0f2f7"/>
    </clipPath>
  </defs>
  <g id="Group_13" data-name="Group 13" style="isolation: isolate">
    <g id="Group_12" data-name="Group 12" clip-path="url(#clip-path)">
      <path id="Path_24" data-name="Path 24" d="M433.992,867.984c-115.923,0-224.908-45.144-306.88-127.114S0,549.915,0,433.992s45.142-224.908,127.112-306.88S318.069,0,433.992,0,658.9,45.142,740.87,127.112s127.114,190.956,127.114,306.88S822.839,658.9,740.87,740.87,549.915,867.984,433.992,867.984m0-820.573c-213.161,0-386.581,173.42-386.581,386.581s173.42,386.581,386.581,386.581,386.581-173.42,386.581-386.581S647.153,47.411,433.992,47.411" fill="#f0f2f7"/>
      <path id="Path_25" data-name="Path 25" d="M372.23,669.459C208.338,669.459,75,536.124,75,372.23S208.338,75,372.23,75s297.23,133.338,297.23,297.23-133.336,297.23-297.23,297.23m0-547.049c-137.75,0-249.819,112.068-249.819,249.819S234.479,622.049,372.23,622.049,622.049,509.98,622.049,372.23,509.98,122.411,372.23,122.411" transform="translate(61.762 61.762)" fill="#f0f2f7"/>
      <path id="Path_26" data-name="Path 26" d="M310.468,470.935C221.986,470.935,150,398.949,150,310.468S221.986,150,310.468,150s160.468,71.986,160.468,160.468S398.949,470.935,310.468,470.935m0-273.524A113.057,113.057,0,1,0,423.524,310.468,113.185,113.185,0,0,0,310.468,197.411" transform="translate(123.524 123.524)" fill="#f0f2f7"/>
      <path id="Path_27" data-name="Path 27" d="M252.823,285.646a32.823,32.823,0,1,1,32.823-32.823,32.861,32.861,0,0,1-32.823,32.823" transform="translate(181.169 181.169)" fill="#f0f2f7"/>
    </g>
  </g>
</svg>
