<svg xmlns="http://www.w3.org/2000/svg" xmlns:xlink="http://www.w3.org/1999/xlink" width="763" height="877" viewBox="0 0 763 877">
  <defs>
    <clipPath id="clip-path">
      <rect id="Rectangle_39" data-name="Rectangle 39" width="763" height="877" transform="translate(1157 3803)" fill="#f0f2f7" stroke="#707070" stroke-width="1" opacity="0.412"/>
    </clipPath>
  </defs>
  <g id="Mask_Group_5" data-name="Mask Group 5" transform="translate(-1157 -3803)" clip-path="url(#clip-path)">
    <path id="Fan_Logo" data-name="Fan Logo" d="M1267.3,37.857h0A75.683,75.683,0,0,0,1163.824,10.2l-319.5,185a562.5,562.5,0,0,0-183.549,170.97l.008-.112a27.514,27.514,0,0,1-21.909,10.612A27.866,27.866,0,0,1,617.032,366.2v.088a562.215,562.215,0,0,0-184-171.121L113.539,10.729a75.683,75.683,0,1,0-75.6,131.135L357.908,326.059A562.273,562.273,0,0,0,597.72,399.506l-.08.04a27.546,27.546,0,0,1,20.14,13.671,27.856,27.856,0,0,1,1.848,24.148l.1-.056a562.742,562.742,0,0,0-56.2,245.03v368.836a75.69,75.69,0,1,0,151.379-.1l-.462-369.043a562.924,562.924,0,0,0-56.326-244.6l.08.056a27.511,27.511,0,0,1,1.777-24.275,27.808,27.808,0,0,1,19.981-13.679l-.08-.056a562.416,562.416,0,0,0,240.25-73.805L1239.59,141.243A75.685,75.685,0,0,0,1267.3,37.857" transform="translate(1157 3803)" fill="#f0f2f7"/>
  </g>
</svg>
